# xmcd
#
# Track frame offsets:
#	170
#	68600
#	89330
#	107453
#	124260
#	193855
#	207288
#	240020
#
# Disc length: 3481 seconds
#
# Revision: 3
# Processed by: cddbd v1.5.2PL0 Copyright (c) Steve Scherf et al.
# Submitted via: audiograbber 1.83.01
#
DISCID=620d9708
DTITLE=Fleetwood Mac - They Play On
DYEAR=1970
DGENRE=Blues
TTITLE0=Rattlesnake Shake - Underway
TTITLE1=Stranger Blues
TTITLE2=World in Harmony
TTITLE3=Tiger
TTITLE4=The Green Manalishi
TTITLE5=Great Balls of Fire
TTITLE6=Twist and Shout
TTITLE7=Whole lot of Loving
EXTD=Recorded live for BBC in London, January 1970.
EXTT0=
EXTT1=
EXTT2=
EXTT3=
EXTT4=
EXTT5=
EXTT6=
EXTT7=
PLAYORDER=
